<svg width="141" height="26" viewBox="0 0 141 26" fill="none" xmlns="http://www.w3.org/2000/svg">
<g clip-path="url(#clip0_1_700)">
<path d="M25 0.0800781H0V25.0801H25V0.0800781Z" fill="#29CC96"/>
<path d="M12.5 5.08008L14.7042 9.54627L19.6329 10.2625L16.0665 13.7389L16.9084 18.6477L12.5 16.3301L8.09161 18.6477L8.93354 13.7389L5.36708 10.2625L10.2958 9.54627L12.5 5.08008Z" fill="white"/>
<path d="M83 0.0800781H58V25.0801H83V0.0800781Z" fill="#29CC96"/>
<path d="M70.5 5.08008L72.7042 9.54627L77.6329 10.2625L74.0665 13.7389L74.9084 18.6477L70.5 16.3301L66.0916 18.6477L66.9335 13.7389L63.3671 10.2625L68.2958 9.54627L70.5 5.08008Z" fill="white"/>
<path d="M54 0.0800781H29V25.0801H54V0.0800781Z" fill="#29CC96"/>
<path d="M41.5 5.08008L43.7042 9.54627L48.6329 10.2625L45.0665 13.7389L45.9084 18.6477L41.5 16.3301L37.0916 18.6477L37.9335 13.7389L34.3671 10.2625L39.2958 9.54627L41.5 5.08008Z" fill="white"/>
<path d="M112 0.0800781H87V25.0801H112V0.0800781Z" fill="#29CC96"/>
<path d="M99.5 5.08008L101.704 9.54627L106.633 10.2625L103.066 13.7389L103.908 18.6477L99.5 16.3301L95.0916 18.6477L95.9335 13.7389L92.3671 10.2625L97.2958 9.54627L99.5 5.08008Z" fill="white"/>
<path d="M141 0.0800781H116V25.0801H141V0.0800781Z" fill="#29CC96"/>
<path d="M128.5 5.08008L130.704 9.54627L135.633 10.2625L132.066 13.7389L132.908 18.6477L128.5 16.3301L124.092 18.6477L124.934 13.7389L121.367 10.2625L126.296 9.54627L128.5 5.08008Z" fill="white"/>
</g>
<defs>
<clipPath id="clip0_1_700">
<rect width="141" height="25" fill="white" transform="translate(0 0.0800781)"/>
</clipPath>
</defs>
</svg>
